<?xml version="1.0" encoding="UTF-8" standalone="no"?>
<!DOCTYPE svg PUBLIC "-//W3C//DTD SVG 1.1//EN"
 "http://www.w3.org/Graphics/SVG/1.1/DTD/svg11.dtd">
<!-- Generated by graphviz version 2.38.0 (20140413.2041)
 -->
<!-- Title: %3 Pages: 1 -->
<svg width="297pt" height="305pt"
 viewBox="0.00 0.00 297.38 305.00" xmlns="http://www.w3.org/2000/svg" xmlns:xlink="http://www.w3.org/1999/xlink">
<g id="graph0" class="graph" transform="scale(1 1) rotate(0) translate(4 301)">
<title>%3</title>
<polygon fill="white" stroke="none" points="-4,4 -4,-301 293.378,-301 293.378,4 -4,4"/>
<!-- sample -->
<g id="node1" class="node"><title>sample</title>
<ellipse fill="none" stroke="black" cx="159.378" cy="-279" rx="36.2938" ry="18"/>
<text text-anchor="middle" x="159.378" y="-275.3" font-family="Times,serif" font-size="14.00">sample</text>
</g>
<!-- ready -->
<g id="node2" class="node"><title>ready</title>
<ellipse fill="none" stroke="black" cx="105.378" cy="-192" rx="30.5947" ry="18"/>
<text text-anchor="middle" x="105.378" y="-188.3" font-family="Times,serif" font-size="14.00">ready</text>
</g>
<!-- sample&#45;&gt;ready -->
<g id="edge1" class="edge"><title>sample&#45;&gt;ready</title>
<path fill="none" stroke="black" d="M138.817,-263.885C131.767,-258.136 124.397,-250.962 119.378,-243 115.032,-236.107 112.01,-227.848 109.919,-220.047"/>
<polygon fill="black" stroke="black" points="113.311,-219.179 107.672,-210.21 106.486,-220.738 113.311,-219.179"/>
<text text-anchor="middle" x="156.378" y="-231.8" font-family="Times,serif" font-size="14.00">phiS negedge</text>
</g>
<!-- reset_comp -->
<g id="node3" class="node"><title>reset_comp</title>
<ellipse fill="none" stroke="black" cx="105.378" cy="-105" rx="51.9908" ry="18"/>
<text text-anchor="middle" x="105.378" y="-101.3" font-family="Times,serif" font-size="14.00">reset_comp</text>
</g>
<!-- ready&#45;&gt;reset_comp -->
<g id="edge2" class="edge"><title>ready&#45;&gt;reset_comp</title>
<path fill="none" stroke="black" d="M75.1215,-189.515C51.5734,-186.578 20.3049,-178.376 4.37774,-156 -10.8259,-134.641 17.5584,-121.943 48.0656,-114.691"/>
<polygon fill="black" stroke="black" points="48.9693,-118.076 57.9926,-112.524 47.4762,-111.237 48.9693,-118.076"/>
<text text-anchor="middle" x="43.8777" y="-144.8" font-family="Times,serif" font-size="14.00">ready posedge</text>
</g>
<!-- reset_comp&#45;&gt;ready -->
<g id="edge3" class="edge"><title>reset_comp&#45;&gt;ready</title>
<path fill="none" stroke="black" d="M105.378,-123.175C105.378,-134.806 105.378,-150.419 105.378,-163.734"/>
<polygon fill="black" stroke="black" points="101.878,-163.799 105.378,-173.799 108.878,-163.799 101.878,-163.799"/>
<text text-anchor="middle" x="144.878" y="-144.8" font-family="Times,serif" font-size="14.00">ready negedge</text>
</g>
<!-- done -->
<g id="node4" class="node"><title>done</title>
<ellipse fill="none" stroke="black" cx="159.378" cy="-18" rx="27.8951" ry="18"/>
<text text-anchor="middle" x="159.378" y="-14.3" font-family="Times,serif" font-size="14.00">done</text>
</g>
<!-- reset_comp&#45;&gt;done -->
<g id="edge4" class="edge"><title>reset_comp&#45;&gt;done</title>
<path fill="none" stroke="black" d="M107.229,-86.7686C108.936,-76.6227 112.191,-63.8834 118.378,-54 122.114,-48.0304 127.197,-42.5462 132.511,-37.7777"/>
<polygon fill="black" stroke="black" points="134.843,-40.3916 140.333,-31.3304 130.39,-34.99 134.843,-40.3916"/>
<text text-anchor="middle" x="155.878" y="-57.8" font-family="Times,serif" font-size="14.00">done posedge</text>
</g>
<!-- done&#45;&gt;sample -->
<g id="edge5" class="edge"><title>done&#45;&gt;sample</title>
<path fill="none" stroke="black" d="M176.881,-32.0676C183.349,-37.9682 189.938,-45.5221 193.378,-54 224.96,-131.837 224.96,-165.163 193.378,-243 191.487,-247.661 188.644,-252.042 185.392,-256.024"/>
<polygon fill="black" stroke="black" points="182.588,-253.898 178.319,-263.594 187.703,-258.677 182.588,-253.898"/>
<text text-anchor="middle" x="252.878" y="-144.8" font-family="Times,serif" font-size="14.00">phiS posedge</text>
</g>
</g>
</svg>
